<?xml version="1.0" encoding="utf-8"?>
<svg version="1.1" xmlns:xlink="http://www.w3.org/1999/xlink" width="39px" height="25px" xmlns="http://www.w3.org/2000/svg">
  <g transform="matrix(1 0 0 1 -354 -355 )">
    <path d="M 38.7743055555556 11.6710013003901  C 38.9247685185185 11.8877329865626  39 12.136974425661  39 12.4187256176853  C 39 12.7221499783268  38.9247685185185 12.9822280017338  38.7743055555556 13.1989596879064  L 30.1076388888889 24.7074122236671  C 29.8668981481481 25.0108365843086  29.603587962963 25.0758560901604  29.3177083333333 24.9024707412224  C 29.0318287037037 24.7074122236671  28.8888888888889 24.3931512787169  28.8888888888889 23.9596879063719  L 28.8888888888889 16.6775032509753  L 0.722222222222222 16.6775032509753  C 0.511574074074074 16.6775032509753  0.338541666666667 16.5799739921977  0.203125 16.3849154746424  C 0.0677083333333333 16.1898569570871  0 15.9406155179887  0 15.6371911573472  L 0 9.39531859557867  C 0 9.09189423493715  0.0677083333333333 8.84265279583875  0.203125 8.64759427828348  C 0.338541666666667 8.45253576072822  0.511574074074074 8.35500650195059  0.722222222222222 8.35500650195059  L 28.8888888888889 8.35500650195059  L 28.8888888888889 1.07282184655397  C 28.8888888888889 0.617685305591678  29.0318287037037 0.303424360641524  29.3177083333333 0.130039011703512  C 29.603587962963 -0.0433463372345066  29.8668981481481 0.0108365843086239  30.1076388888889 0.2925877763329  L 38.7743055555556 11.6710013003901  Z " fill-rule="nonzero" fill="#928d7b" stroke="none" transform="matrix(1 0 0 1 354 355 )" />
  </g>
</svg>