<?xml version="1.0" encoding="utf-8"?>
<svg version="1.1" xmlns:xlink="http://www.w3.org/1999/xlink" width="395px" height="324px" xmlns="http://www.w3.org/2000/svg">
  <defs>
    <mask fill="white" id="clip111">
      <path d="M 0 316  L 0 0  L 151 0  L 387 0  L 387 316  L 0 316  Z " fill-rule="evenodd" />
    </mask>
    <filter x="13px" y="31px" width="395px" height="324px" filterUnits="userSpaceOnUse" id="filter112">
      <feOffset dx="2" dy="3" in="SourceAlpha" result="shadowOffsetInner" />
      <feGaussianBlur stdDeviation="2" in="shadowOffsetInner" result="shadowGaussian" />
      <feComposite in2="shadowGaussian" operator="atop" in="SourceAlpha" result="shadowComposite" />
      <feColorMatrix type="matrix" values="0 0 0 0 0  0 0 0 0 0  0 0 0 0 0  0 0 0 0.349019607843137 0  " in="shadowComposite" />
    </filter>
    <g id="widget113">
      <path d="M 0 316  L 0 0  L 151 0  L 387 0  L 387 316  L 0 316  Z " fill-rule="nonzero" fill="#a9c980" stroke="none" fill-opacity="0.396078431372549" transform="matrix(1 0 0 1 15 32 )" />
      <path d="M 0 316  L 0 0  L 151 0  L 387 0  L 387 316  L 0 316  Z " stroke-width="2" stroke="#a9c980" fill="none" transform="matrix(1 0 0 1 15 32 )" mask="url(#clip111)" />
    </g>
  </defs>
  <g transform="matrix(1 0 0 1 -13 -31 )">
    <use xlink:href="#widget113" filter="url(#filter112)" />
    <use xlink:href="#widget113" />
  </g>
</svg>