<?xml version="1.0" encoding="utf-8"?>
<svg version="1.1" xmlns:xlink="http://www.w3.org/1999/xlink" width="21px" height="21px" xmlns="http://www.w3.org/2000/svg">
  <g transform="matrix(1 0 0 1 -101 -169 )">
    <path d="M 16.365234375 11.990234375  C 16.5384114583333 11.8170572916667  16.625 11.6119791666667  16.625 11.375  L 16.625 9.625  C 16.625 9.38802083333333  16.5384114583333 9.18294270833333  16.365234375 9.009765625  C 16.1920572916667 8.83658854166667  15.9869791666667 8.75  15.75 8.75  L 12.25 8.75  L 12.25 5.25  C 12.25 5.01302083333333  12.1634114583333 4.80794270833333  11.990234375 4.634765625  C 11.8170572916667 4.46158854166667  11.6119791666667 4.375  11.375 4.375  L 9.625 4.375  C 9.38802083333333 4.375  9.18294270833333 4.46158854166667  9.009765625 4.634765625  C 8.83658854166667 4.80794270833333  8.75 5.01302083333333  8.75 5.25  L 8.75 8.75  L 5.25 8.75  C 5.01302083333333 8.75  4.80794270833333 8.83658854166667  4.634765625 9.009765625  C 4.46158854166667 9.18294270833333  4.375 9.38802083333333  4.375 9.625  L 4.375 11.375  C 4.375 11.6119791666667  4.46158854166667 11.8170572916667  4.634765625 11.990234375  C 4.80794270833333 12.1634114583333  5.01302083333333 12.25  5.25 12.25  L 8.75 12.25  L 8.75 15.75  C 8.75 15.9869791666667  8.83658854166667 16.1920572916667  9.009765625 16.365234375  C 9.18294270833333 16.5384114583333  9.38802083333333 16.625  9.625 16.625  L 11.375 16.625  C 11.6119791666667 16.625  11.8170572916667 16.5384114583333  11.990234375 16.365234375  C 12.1634114583333 16.1920572916667  12.25 15.9869791666667  12.25 15.75  L 12.25 12.25  L 15.75 12.25  C 15.9869791666667 12.25  16.1920572916667 12.1634114583333  16.365234375 11.990234375  Z M 19.591796875 5.2294921875  C 20.5305989583333 6.83821614583333  21 8.59505208333333  21 10.5  C 21 12.4049479166667  20.5305989583333 14.1617838541667  19.591796875 15.7705078125  C 18.6529947916667 17.3792317708333  17.3792317708333 18.6529947916667  15.7705078125 19.591796875  C 14.1617838541667 20.5305989583333  12.4049479166667 21  10.5 21  C 8.59505208333333 21  6.83821614583333 20.5305989583333  5.2294921875 19.591796875  C 3.62076822916667 18.6529947916667  2.34700520833333 17.3792317708333  1.408203125 15.7705078125  C 0.469401041666667 14.1617838541667  0 12.4049479166667  0 10.5  C 0 8.59505208333333  0.469401041666667 6.83821614583333  1.408203125 5.2294921875  C 2.34700520833333 3.62076822916667  3.62076822916667 2.34700520833333  5.2294921875 1.408203125  C 6.83821614583333 0.469401041666665  8.59505208333333 0  10.5 0  C 12.4049479166667 0  14.1617838541667 0.469401041666665  15.7705078125 1.408203125  C 17.3792317708333 2.34700520833333  18.6529947916667 3.62076822916667  19.591796875 5.2294921875  Z " fill-rule="nonzero" fill="#928d7b" stroke="none" transform="matrix(1 0 0 1 101 169 )" />
  </g>
</svg>