<!-- Generator: Adobe Illustrator 23.0.2, SVG Export Plug-In  -->
<svg version="1.1" xmlns="http://www.w3.org/2000/svg" xmlns:xlink="http://www.w3.org/1999/xlink" x="0px" y="0px"
	 width="106.41px" height="157.44px" viewBox="0 0 106.41 157.44" style="enable-background:new 0 0 106.41 157.44;"
	 xml:space="preserve">
<style type="text/css">
	.st0{fill:#8CA581;}
</style>
<defs>
</defs>
<path class="st0" d="M74.13,114.48c0,0-3.13-11.22,5.1-19.28c5.75-5.63,17.22-7.85,23.65-8.7c2.28-0.3,4.09,1.89,3.38,4.05
	c-1.46,4.51-4.37,11.36-9.4,15.92C90.02,112.64,74.13,114.48,74.13,114.48L74.13,114.48z M47.26,30.56"/>
<path class="st0" d="M94.84,35.61l-8.4-26.77c-0.8-2.58-2.68-4.67-5.15-5.77c-2.47-1.09-5.27-1.09-7.71,0.03
	c-2.24,1.02-5.04,2.43-8.1,4.27C58.89,0.8,49.16-1.65,40.16,1.13c-5.22,1.62-9.68,4.78-12.91,9.18c-2.58,3.51-4.18,7.54-4.71,11.77
	c-5.87-0.15-11.02,0.42-14.65,1.02c-2.69,0.45-5.06,2.03-6.49,4.36c-1.43,2.33-1.79,5.14-0.96,7.75l8.37,26.66
	c3.25,10.38,10.73,18.82,21.03,23.75c9.5,4.54,20.29,5.58,30.68,3c0.8-0.2,1.58-0.41,2.38-0.65c0.47-0.14,0.96-0.32,1.43-0.54
	c0.2-0.01,0.4-0.04,0.61-0.09l0.15-0.04c1.13,4.7,3.79,18.03,2.19,32.92c-1.86,17.5-6.03,33.08-6.08,33.23
	c-0.46,1.68,0.55,3.42,2.22,3.88c0.54,0.15,1.07,0.14,1.59,0.01c1.07-0.27,1.98-1.1,2.29-2.23c0.18-0.65,4.35-16.17,6.26-34.19
	c1.8-16.88-1.41-31.49-2.54-35.86c3.59-1.64,6.93-3.73,9.98-6.26c4.53-3.75,8.18-8.21,10.85-13.28
	C96.89,56.04,97.92,45.43,94.84,35.61L94.84,35.61z M42.04,7.14c6.32-1.96,13.13-0.46,18.03,3.81c-5.38,3.92-10.94,9.08-15.17,15.69
	c-5.34-2.29-10.85-3.54-16.04-4.14C29.92,15.33,34.95,9.33,42.04,7.14L42.04,7.14z M14.84,59.97L6.47,33.31
	c-0.28-0.87-0.16-1.77,0.32-2.54c0.44-0.7,1.09-1.18,1.89-1.38c0.08-0.02,0.17-0.04,0.25-0.04c7.38-1.2,21.68-2.34,34.51,3.55
	c17.31,7.96,21.36,18.94,24.9,28.62l0.27,0.75c2.07,5.62,0.87,10.12-0.51,12.9c-1.86,3.77-4.87,6.13-7.03,6.78
	c-0.68,0.21-1.38,0.4-2.07,0.58C39.85,87.24,20.35,77.46,14.84,59.97L14.84,59.97z M86.31,62.53c-2.74,5.17-6.74,9.66-11.58,13.07
	c1.78-4.93,1.71-10.36-0.19-15.57l-0.26-0.73c-3.3-8.95-7.71-20.95-23.65-29.87c7.33-11.1,19.07-17.66,25.58-20.62
	c0.8-0.36,1.72-0.37,2.52,0c0.82,0.36,1.44,1.04,1.69,1.91l8.4,26.77C91.39,45.71,90.52,54.6,86.31,62.53L86.31,62.53z M86.31,62.53
	"/>
</svg>
