<?xml version="1.0" encoding="utf-8"?>
<svg version="1.1" xmlns:xlink="http://www.w3.org/1999/xlink" width="170px" height="170px" xmlns="http://www.w3.org/2000/svg">
  <g transform="matrix(1 0 0 1 -362 -115 )">
    <path d="M 447 115  C 494.6 115  532 152.4  532 200  C 532 247.6  494.6 285  447 285  C 399.4 285  362 247.6  362 200  C 362 152.4  399.4 115  447 115  Z " fill-rule="nonzero" fill="#ffffff" stroke="none" fill-opacity="0" />
    <path d="M 447 115.5  C 494.32 115.5  531.5 152.68  531.5 200  C 531.5 247.32  494.32 284.5  447 284.5  C 399.68 284.5  362.5 247.32  362.5 200  C 362.5 152.68  399.68 115.5  447 115.5  Z " stroke-width="1" stroke="#86a845" fill="none" />
  </g>
</svg>