<?xml version="1.0" encoding="utf-8"?>
<svg version="1.1" xmlns:xlink="http://www.w3.org/1999/xlink" width="90px" height="90px" xmlns="http://www.w3.org/2000/svg">
  <g transform="matrix(1 0 0 1 -36 -58 )">
    <path d="M 81 58  C 106.2 58  126 77.8  126 103  C 126 128.2  106.2 148  81 148  C 55.8 148  36 128.2  36 103  C 36 77.8  55.8 58  81 58  Z " fill-rule="nonzero" fill="#ffffff" stroke="none" />
    <path d="M 81 58.5  C 105.92 58.5  125.5 78.08  125.5 103  C 125.5 127.92  105.92 147.5  81 147.5  C 56.08 147.5  36.5 127.92  36.5 103  C 36.5 78.08  56.08 58.5  81 58.5  Z " stroke-width="1" stroke="#797979" fill="none" />
  </g>
</svg>