<?xml version="1.0" encoding="utf-8"?>
<svg version="1.1" xmlns:xlink="http://www.w3.org/1999/xlink" width="15px" height="13px" xmlns="http://www.w3.org/2000/svg">
  <g transform="matrix(1 0 0 1 -11 -11 )">
    <path d="M 12.3549107142857 6.97395833333333  C 13.4040178571429 5.91319444444444  13.9285714285714 4.90885416666667  13.9285714285714 3.9609375  C 13.9285714285714 3.50390625  13.8685825892857 3.10047743055555  13.7486049107143 2.75065104166667  C 13.6286272321429 2.40082465277778  13.4751674107143 2.12293836805555  13.2882254464286 1.9169921875  C 13.1012834821429 1.71104600694444  12.8738839285714 1.54318576388889  12.6060267857143 1.41341145833333  C 12.3381696428571 1.28363715277778  12.0758928571429 1.19618055555555  11.8191964285714 1.15104166666667  C 11.5625 1.10590277777778  11.2890625 1.08333333333333  10.9988839285714 1.08333333333333  C 10.7087053571429 1.08333333333333  10.3962053571429 1.1552734375  10.0613839285714 1.29915364583333  C 9.7265625 1.44303385416667  9.41824776785714 1.62358940972222  9.13643973214286 1.8408203125  C 8.85463169642857 2.05805121527778  8.61328125 2.26117621527778  8.41238839285714 2.4501953125  C 8.21149553571429 2.63921440972222  8.04408482142857 2.81271701388889  7.91015625 2.970703125  C 7.80970982142857 3.09483506944444  7.67299107142857 3.15690104166667  7.5 3.15690104166667  C 7.32700892857143 3.15690104166667  7.19029017857143 3.09483506944444  7.08984375 2.970703125  C 6.95591517857143 2.81271701388889  6.78850446428571 2.63921440972222  6.58761160714286 2.4501953125  C 6.38671875 2.26117621527778  6.14536830357143 2.05805121527778  5.86356026785714 1.8408203125  C 5.58175223214286 1.62358940972222  5.2734375 1.44303385416667  4.93861607142857 1.29915364583333  C 4.60379464285714 1.1552734375  4.29129464285714 1.08333333333333  4.00111607142857 1.08333333333333  C 3.7109375 1.08333333333333  3.4375 1.10590277777778  3.18080357142857 1.15104166666667  C 2.92410714285714 1.19618055555555  2.66183035714286 1.28363715277778  2.39397321428571 1.41341145833333  C 2.12611607142857 1.54318576388889  1.89871651785714 1.71104600694444  1.71177455357143 1.9169921875  C 1.52483258928571 2.12293836805555  1.37137276785714 2.40082465277778  1.25139508928571 2.75065104166667  C 1.13141741071429 3.10047743055555  1.07142857142857 3.50390625  1.07142857142857 3.9609375  C 1.07142857142857 4.90885416666667  1.59319196428571 5.91037326388889  2.63671875 6.96549479166667  L 7.5 11.705078125  L 12.3549107142857 6.97395833333333  Z M 13.9369419642857 1.04947916666667  C 14.6456473214286 1.74913194444444  15 2.71961805555555  15 3.9609375  C 15 5.20789930555556  14.3610491071429 6.47743055555556  13.0831473214286 7.76953125  L 7.86830357142857 12.84765625  C 7.76785714285714 12.94921875  7.64508928571429 13  7.5 13  C 7.35491071428571 13  7.23214285714286 12.94921875  7.13169642857143 12.84765625  L 1.90848214285714 7.75260416666667  C 1.85267857142857 7.70746527777778  1.77594866071429 7.63411458333333  1.67829241071429 7.53255208333333  C 1.58063616071429 7.43098958333333  1.42578125 7.24620225694444  1.21372767857143 6.97819010416667  C 1.00167410714286 6.71017795138889  0.811941964285714 6.43511284722222  0.64453125 6.15299479166667  C 0.477120535714286 5.87087673611111  0.327845982142857 5.52951388888889  0.196707589285714 5.12890625  C 0.0655691964285714 4.72829861111111  0 4.33897569444444  0 3.9609375  C 0 2.71961805555555  0.354352678571428 1.74913194444444  1.06305803571429 1.04947916666667  C 1.77176339285714 0.349826388888889  2.75111607142857 0  4.00111607142857 0  C 4.34709821428571 0  4.70005580357143 0.0606553819444436  5.05998883928571 0.181966145833334  C 5.419921875 0.303276909722221  5.75474330357143 0.466905381944444  6.064453125 0.6728515625  C 6.37416294642857 0.878797743055555  6.640625 1.07204861111111  6.86383928571429 1.25260416666667  C 7.08705357142857 1.43315972222222  7.29910714285714 1.625  7.5 1.828125  C 7.70089285714286 1.625  7.91294642857143 1.43315972222222  8.13616071428572 1.25260416666667  C 8.359375 1.07204861111111  8.62583705357143 0.878797743055555  8.935546875 0.6728515625  C 9.24525669642857 0.466905381944444  9.580078125 0.303276909722221  9.94001116071428 0.181966145833334  C 10.2999441964286 0.0606553819444436  10.6529017857143 0  10.9988839285714 0  C 12.2488839285714 0  13.2282366071429 0.349826388888889  13.9369419642857 1.04947916666667  Z " fill-rule="nonzero" fill="#a2d89f" stroke="none" transform="matrix(1 0 0 1 11 11 )" />
  </g>
</svg>