<?xml version="1.0" encoding="utf-8"?>
<svg version="1.1" xmlns:xlink="http://www.w3.org/1999/xlink" width="20px" height="14px" xmlns="http://www.w3.org/2000/svg">
  <g transform="matrix(1 0 0 1 -248 -65 )">
    <path d="M 2.75669642857143 11.7486979166667  C 2.82366071428571 11.8033854166667  2.85714285714286 11.8732638888889  2.85714285714286 11.9583333333333  L 2.85714285714286 13.7083333333333  C 2.85714285714286 13.7934027777778  2.82366071428571 13.86328125  2.75669642857143 13.91796875  C 2.68973214285714 13.97265625  2.60416666666667 14  2.5 14  L 0.357142857142857 14  C 0.25297619047619 14  0.167410714285714 13.97265625  0.100446428571429 13.91796875  C 0.0334821428571429 13.86328125  0 13.7934027777778  0 13.7083333333333  L 0 11.9583333333333  C 0 11.8732638888889  0.0334821428571429 11.8033854166667  0.100446428571429 11.7486979166667  C 0.167410714285714 11.6940104166667  0.25297619047619 11.6666666666667  0.357142857142857 11.6666666666667  L 2.5 11.6666666666667  C 2.60416666666667 11.6666666666667  2.68973214285714 11.6940104166667  2.75669642857143 11.7486979166667  Z M 7.04241071428571 10.58203125  C 7.109375 10.63671875  7.14285714285714 10.7065972222222  7.14285714285714 10.7916666666667  L 7.14285714285714 13.7083333333333  C 7.14285714285714 13.7934027777778  7.109375 13.86328125  7.04241071428571 13.91796875  C 6.97544642857143 13.97265625  6.88988095238095 14  6.78571428571429 14  L 4.64285714285714 14  C 4.53869047619048 14  4.453125 13.97265625  4.38616071428571 13.91796875  C 4.31919642857143 13.86328125  4.28571428571429 13.7934027777778  4.28571428571429 13.7083333333333  L 4.28571428571429 10.7916666666667  C 4.28571428571429 10.7065972222222  4.31919642857143 10.63671875  4.38616071428571 10.58203125  C 4.453125 10.52734375  4.53869047619048 10.5  4.64285714285714 10.5  L 6.78571428571429 10.5  C 6.88988095238095 10.5  6.97544642857143 10.52734375  7.04241071428571 10.58203125  Z M 11.328125 8.24869791666667  C 11.3950892857143 8.30338541666667  11.4285714285714 8.37326388888889  11.4285714285714 8.45833333333333  L 11.4285714285714 13.7083333333333  C 11.4285714285714 13.7934027777778  11.3950892857143 13.86328125  11.328125 13.91796875  C 11.2611607142857 13.97265625  11.1755952380952 14  11.0714285714286 14  L 8.92857142857143 14  C 8.82440476190476 14  8.73883928571429 13.97265625  8.671875 13.91796875  C 8.60491071428571 13.86328125  8.57142857142857 13.7934027777778  8.57142857142857 13.7083333333333  L 8.57142857142857 8.45833333333333  C 8.57142857142857 8.37326388888889  8.60491071428571 8.30338541666667  8.671875 8.24869791666667  C 8.73883928571429 8.19401041666667  8.82440476190476 8.16666666666667  8.92857142857143 8.16666666666667  L 11.0714285714286 8.16666666666667  C 11.1755952380952 8.16666666666667  11.2611607142857 8.19401041666667  11.328125 8.24869791666667  Z M 15.6138392857143 4.74869791666667  C 15.6808035714286 4.80338541666667  15.7142857142857 4.87326388888889  15.7142857142857 4.95833333333333  L 15.7142857142857 13.7083333333333  C 15.7142857142857 13.7934027777778  15.6808035714286 13.86328125  15.6138392857143 13.91796875  C 15.546875 13.97265625  15.4613095238095 14  15.3571428571429 14  L 13.2142857142857 14  C 13.110119047619 14  13.0245535714286 13.97265625  12.9575892857143 13.91796875  C 12.890625 13.86328125  12.8571428571429 13.7934027777778  12.8571428571429 13.7083333333333  L 12.8571428571429 4.95833333333333  C 12.8571428571429 4.87326388888889  12.890625 4.80338541666667  12.9575892857143 4.74869791666667  C 13.0245535714286 4.69401041666667  13.110119047619 4.66666666666667  13.2142857142857 4.66666666666667  L 15.3571428571429 4.66666666666667  C 15.4613095238095 4.66666666666667  15.546875 4.69401041666667  15.6138392857143 4.74869791666667  Z M 19.8995535714286 0.08203125  C 19.9665178571429 0.13671875  20 0.20659722222222  20 0.291666666666667  L 20 13.7083333333333  C 20 13.7934027777778  19.9665178571429 13.86328125  19.8995535714286 13.91796875  C 19.8325892857143 13.97265625  19.7470238095238 14  19.6428571428571 14  L 17.5 14  C 17.3958333333333 14  17.3102678571429 13.97265625  17.2433035714286 13.91796875  C 17.1763392857143 13.86328125  17.1428571428571 13.7934027777778  17 13.7083333333333  L 17 0.291666666666667  C 17.1428571428571 0.20659722222222  17.1763392857143 0.13671875  17.2433035714286 0.08203125  C 17.3102678571429 0.02734375  17.3958333333333 0  17.5 0  L 19.6428571428571 0  C 19.7470238095238 0  19.8325892857143 0.02734375  19.8995535714286 0.08203125  Z " fill-rule="nonzero" fill="#ffffff" stroke="none" transform="matrix(1 0 0 1 248 65 )" />
  </g>
</svg>