<?xml version="1.0" encoding="utf-8"?>
<svg version="1.1" xmlns:xlink="http://www.w3.org/1999/xlink" width="19px" height="11px" xmlns="http://www.w3.org/2000/svg">
  <g transform="matrix(1 0 0 1 -623 -67 )">
    <path d="M 12.6666666666667 8.8  L 2.11111111111111 8.8  L 2.11111111111111 2.2  L 12.6666666666667 2.2  L 12.6666666666667 8.8  Z M 17.9444444444444 1.375  L 17.9444444444444 2.75  C 18.2358217592593 2.75  18.4845920138889 2.857421875  18.6907552083333 3.072265625  C 18.8969184027778 3.287109375  19 3.54635416666667  19 3.85  L 19 7.15  C 19 7.45364583333333  18.8969184027778 7.712890625  18.6907552083333 7.927734375  C 18.4845920138889 8.142578125  18.2358217592593 8.25  17.9444444444444 8.25  L 17.9444444444444 9.625  C 17.9444444444444 10.003125  17.8152488425926 10.3268229166667  17.5568576388889 10.59609375  C 17.2984664351852 10.8653645833333  16.9878472222222 11  16.625 11  L 1.31944444444444 11  C 0.956597222222222 11  0.645978009259259 10.8653645833333  0.387586805555556 10.59609375  C 0.129195601851852 10.3268229166667  0 10.003125  0 9.625  L 0 1.375  C 0 0.996875  0.129195601851852 0.673177083333333  0.387586805555556 0.40390625  C 0.645978009259259 0.134635416666665  0.956597222222222 0  1.31944444444444 0  L 16.625 0  C 16.9878472222222 0  17.2984664351852 0.134635416666665  17.5568576388889 0.40390625  C 17.8152488425926 0.673177083333333  17.9444444444444 0.996875  17.9444444444444 1.375  Z M 16.8888888888889 7.15  L 17.9444444444444 7.15  L 17.9444444444444 3.85  L 16.8888888888889 3.85  L 16.8888888888889 1.375  C 16.8888888888889 1.29479166666667  16.8641493055556 1.22890625  16.8146701388889 1.17734375  C 16.7651909722222 1.12578125  16.7019675925926 1.1  16.625 1  L 1.31944444444444 1  C 1.24247685185185 1.1  1.17925347222222 1.12578125  1.12977430555556 1.17734375  C 1.08029513888889 1.22890625  1.05555555555556 1.29479166666667  1.05555555555556 1.375  L 1.05555555555556 9.625  C 1.05555555555556 9.70520833333333  1.08029513888889 9.77109375  1.12977430555556 9.82265625  C 1.17925347222222 9.87421875  1.24247685185185 9.9  1.31944444444444 10  L 16.625 10  C 16.7019675925926 9.9  16.7651909722222 9.87421875  16.8146701388889 9.82265625  C 16.8641493055556 9.77109375  16.8888888888889 9.70520833333333  16.8888888888889 9.625  L 16.8888888888889 7.15  Z " fill-rule="nonzero" fill="#ffffff" stroke="none" transform="matrix(1 0 0 1 623 67 )" />
  </g>
</svg>