<?xml version="1.0" encoding="utf-8"?>
<svg version="1.1" xmlns:xlink="http://www.w3.org/1999/xlink" width="27px" height="16px" xmlns="http://www.w3.org/2000/svg">
  <g transform="matrix(1 0 0 1 -259 -482 )">
    <path d="M 17.9015625 15.2638888888889  C 17.9671875 15.3564814814815  18 15.4537037037037  18 15.5555555555556  C 18 15.6759259259259  17.95546875 15.7800925925926  17.86640625 15.8680555555556  C 17.77734375 15.9560185185185  17.671875 16  17.55 16  L 4.05 16  C 3.975 16  3.91171875 15.9907407407407  3.86015625 15.9722222222222  C 3.80859375 15.9537037037037  3.76640625 15.9212962962963  3.73359375 15.875  C 3.70078125 15.8287037037037  3.675 15.7916666666667  3.65625 15.7638888888889  C 3.6375 15.7361111111111  3.6234375 15.6828703703704  3.6140625 15.6041666666667  C 3.6046875 15.525462962963  3.6 15.4722222222222  3.6 15.4444444444444  L 3.6 15.2638888888889  L 3.6 15.1111111111111  L 3.6 12.8888888888889  L 3.6 7.11111111111111  L 0.9 7.11111111111111  C 0.65625 7.11111111111111  0.4453125 7.02314814814815  0.2671875 6.84722222222222  C 0.0890625 6.6712962962963  0 6.46296296296296  0 6.22222222222222  C 0 6  0.0703125 5.81018518518518  0.2109375 5.65277777777778  L 4.7109375 0.319444444444445  C 4.8890625 0.11574074074074  5.11875 0.0138888888888893  5.4 0.0138888888888893  C 5.68125 0.0138888888888893  5.9109375 0.11574074074074  6.0890625 0.319444444444445  L 10.5890625 5.65277777777778  C 10.7296875 5.81018518518518  10.8 6  10.8 6.22222222222222  C 10.8 6.46296296296296  10.7109375 6.6712962962963  10.5328125 6.84722222222222  C 10.3546875 7.02314814814815  10.14375 7.11111111111111  9.9 7.11111111111111  L 7.2 7.11111111111111  L 7.2 12.4444444444444  L 15.3 12.4444444444444  C 15.45 12.4444444444444  15.5671875 12.4953703703704  15.6515625 12.5972222222222  L 17.9015625 15.2638888888889  Z M 26.7328125 9.15277777777778  C 26.9109375 9.3287037037037  27 9.53703703703703  27 9.77777777777778  C 27 10  26.9296875 10.1898148148148  26.7890625 10.3472222222222  L 22.2890625 15.6805555555556  C 22.1015625 15.8935185185185  21.871875 16  21.6 16  C 21.328125 16  21.0984375 15.8935185185185  20.9109375 15.6805555555556  L 16.4109375 10.3472222222222  C 16.2703125 10.1898148148148  16.2 10  16.2 9.77777777777778  C 16.2 9.53703703703703  16.2890625 9.3287037037037  16.4671875 9.15277777777778  C 16.6453125 8.97685185185185  16.85625 8.88888888888889  17.1 8.88888888888889  L 19.8 8.88888888888889  L 19.8 3.55555555555556  L 11.7 3.55555555555556  C 11.55 3.55555555555556  11.4328125 3.5  11.3484375 3.38888888888889  L 9.0984375 0.722222222222221  C 9.0328125 0.638888888888889  9 0.546296296296296  9 0.444444444444445  C 9 0.324074074074073  9.04453125 0.219907407407407  9.13359375 0.131944444444445  C 9.22265625 0.0439814814814792  9.328125 0  9.45 0  L 22.95 0  C 23.025 0  23.08828125 0.00925925925925775  23.13984375 0.0277777777777786  C 23.19140625 0.0462962962962958  23.23359375 0.0787037037037024  23.26640625 0.125  C 23.29921875 0.171296296296296  23.325 0.208333333333334  23.34375 0.236111111111111  C 23.3625 0.263888888888889  23.3765625 0.317129629629628  23.3859375 0.395833333333334  C 23.3953125 0.474537037037035  23.4 0.527777777777779  23.4 0.555555555555555  L 23.4 0.736111111111111  L 23.4 0.888888888888889  L 23.4 3.11111111111111  L 23.4 8.88888888888889  L 26.1 8.88888888888889  C 26.34375 8.88888888888889  26.5546875 8.97685185185185  26.7328125 9.15277777777778  Z " fill-rule="nonzero" fill="#bad69b" stroke="none" transform="matrix(1 0 0 1 259 482 )" />
  </g>
</svg>