<!-- Generator: Adobe Illustrator 23.0.2, SVG Export Plug-In  -->
<svg version="1.1" xmlns="http://www.w3.org/2000/svg" xmlns:xlink="http://www.w3.org/1999/xlink" x="0px" y="0px" width="178px"
	 height="178px" viewBox="0 0 178 178" style="enable-background:new 0 0 178 178;" xml:space="preserve">
<style type="text/css">
	.st0{fill:#CCF0C5;}
	.st1{fill:#8CA581;}
	.st2{fill:#8CA581;stroke:#8CA581;stroke-width:8;stroke-miterlimit:10;}
</style>
<defs>
</defs>
<circle class="st0" cx="89" cy="89" r="89"/>
<path class="st1" d="M109.7,23.61c2.65,0,5.15,1.03,7.02,2.91c3.87,3.87,3.87,10.18,0,14.05c-2.25,2.26-11.78,5.38-21.85,7.8
	c2.41-10.06,5.54-19.59,7.8-21.85C104.55,24.64,107.05,23.61,109.7,23.61 M109.7,16.98c-4.24,0-8.47,1.62-11.71,4.85
	c-6.46,6.47-11.71,35.13-11.71,35.13s28.66-5.24,35.13-11.71c6.47-6.47,6.47-16.95,0-23.42C118.18,18.6,113.94,16.98,109.7,16.98
	L109.7,16.98z M109.7,16.98"/>
<path class="st1" d="M69.39,23.71c2.65,0,5.15,1.03,7.02,2.91c2.25,2.25,5.38,11.78,7.8,21.85c-10.06-2.41-19.59-5.54-21.85-7.8
	c-3.87-3.87-3.87-10.18,0-14.05C64.24,24.74,66.73,23.71,69.39,23.71 M69.39,17.08c-4.24,0-8.47,1.62-11.71,4.85
	c-6.47,6.47-6.47,16.95,0,23.42c6.47,6.47,35.13,11.71,35.13,11.71S87.56,28.4,81.1,21.93C77.86,18.7,73.63,17.08,69.39,17.08
	L69.39,17.08z M69.39,17.08"/>
<path class="st1" d="M125.92,59.54c7.31,0,13.25,5.94,13.25,13.25v49.67c0,7.31-5.94,13.25-13.25,13.25H53.07
	c-7.31,0-13.25-5.94-13.25-13.25V72.79c0-7.31,5.94-13.25,13.25-13.25H125.92 M125.92,52.92H53.07c-10.98,0-19.87,8.9-19.87,19.87
	v49.67c0,10.97,8.89,19.87,19.87,19.87h72.85c10.98,0,19.87-8.9,19.87-19.87V72.79C145.79,61.81,136.9,52.92,125.92,52.92
	L125.92,52.92z M125.92,52.92"/>
<line class="st2" x1="40.08" y1="78.98" x2="138.87" y2="78.98"/>
<line class="st2" x1="90.1" y1="57.1" x2="90.3" y2="135.7"/>
</svg>
