<?xml version="1.0" encoding="utf-8"?>
<svg version="1.1" xmlns:xlink="http://www.w3.org/1999/xlink" width="7px" height="18px" xmlns="http://www.w3.org/2000/svg">
  <g transform="matrix(1 0 0 1 -305 -602 )">
    <path d="M 6.2152466367713 13.7428977272727  C 6.41405082212257 13.9048295454545  6.51345291479821 14.0965909090909  6.51345291479821 14.3181818181818  L 6.51345291479821 17.1818181818182  C 6.51345291479821 17.4034090909091  6.41405082212257 17.5951704545455  6.2152466367713 17.7571022727273  C 6.01644245142003 17.9190340909091  5.78101644245142 18  5.50896860986547 18  L 1.49103139013453 18  C 1.21898355754858 18  0.98355754857997 17.9190340909091  0.7847533632287 17.7571022727273  C 0.585949177877429 17.5951704545455  0.486547085201794 17.4034090909091  0.486547085201794 17.1818181818182  L 0.486547085201794 14.3181818181818  C 0.486547085201794 14.0965909090909  0.585949177877429 13.9048295454545  0.7847533632287 13.7428977272727  C 0.98355754857997 13.5809659090909  1.21898355754858 13.5  1.49103139013453 13.5  L 5.50896860986547 13.5  C 5.78101644245142 13.5  6.01644245142003 13.5809659090909  6.2152466367713 13.7428977272727  Z M 6.70964125560538 0.242897727272728  C 6.90321375186846 0.404829545454543  6.99476831091181 0.596590909090908  6.98430493273543 0.818181818181817  L 6.54484304932735 10.6363636363636  C 6.53437967115097 10.8579545454545  6.42713004484305 11.0497159090909  6.22309417040359 11.2116477272727  C 6.01905829596413 11.3735795454545  5.78101644245142 11.4545454545455  5.50896860986547 11.4545454545455  L 1.49103139013453 11.4545454545455  C 1.21898355754858 11.4545454545455  0.980941704035874 11.3735795454545  0.776905829596413 11.2116477272727  C 0.572869955156951 11.0497159090909  0.465620328849028 10.8579545454545  0.455156950672646 10.6363636363636  L 0.015695067264574 0.818181818181817  C 0.00523168908819148 0.596590909090908  0.0967862481315397 0.404829545454543  0.290358744394619 0.242897727272728  C 0.483931240657698 0.0809659090909074  0.716741405082213 0  0.988789237668161 0  L 6.01121076233184 0  C 6.28325859491779 0  6.5160687593423 0.0809659090909074  6.70964125560538 0.242897727272728  Z " fill-rule="nonzero" fill="#9bc2a1" stroke="none" transform="matrix(1 0 0 1 305 602 )" />
  </g>
</svg>