<?xml version="1.0" encoding="utf-8"?>
<svg version="1.1" xmlns:xlink="http://www.w3.org/1999/xlink" width="18px" height="17px" xmlns="http://www.w3.org/2000/svg">
  <g transform="matrix(1 0 0 1 -299 -533 )">
    <path d="M 11.12109375 10.5032552083333  C 11.70703125 9.94986979166667  12 9.28211805555556  12 8.5  C 12 7.71788194444444  11.70703125 7.05013020833333  11.12109375 6.49674479166667  C 10.53515625 5.943359375  9.828125 5.66666666666667  9 5.66666666666667  C 8.171875 5.66666666666667  7.46484375 5.943359375  6.87890625 6.49674479166667  C 6.29296875 7.05013020833333  6 7.71788194444444  6 8.5  C 6 9.28211805555556  6.29296875 9.94986979166667  6.87890625 10.5032552083333  C 7.46484375 11.056640625  8.171875 11.3333333333333  9 11.3333333333333  C 9.828125 11.3333333333333  10.53515625 11.056640625  11.12109375 10.5032552083333  Z M 17.90625 7.03352864583333  C 17.96875 7.11100260416667  18 7.19769965277778  18 7.29361979166667  L 18 9.75065104166667  C 18 9.83919270833333  17.96875 9.92404513888889  17.90625 10.0052083333333  C 17.84375 10.0863715277778  17.765625 10.1343315972222  17.671875 10.1490885416667  L 15.50390625 10.458984375  C 15.35546875 10.857421875  15.203125 11.1931423611111  15.046875 11.4661458333333  C 15.3203125 11.8350694444444  15.73828125 12.3441840277778  16.30078125 12.9934895833333  C 16.37890625 13.08203125  16.41796875 13.1742621527778  16.41796875 13.2701822916667  C 16.41796875 13.3661024305556  16.3828125 13.4509548611111  16.3125 13.5247395833333  C 16.1015625 13.7977430555556  15.71484375 14.1961805555556  15.15234375 14.7200520833333  C 14.58984375 15.2439236111111  14.22265625 15.505859375  14.05078125 15.505859375  C 13.95703125 15.505859375  13.85546875 15.47265625  13.74609375 15.40625  L 12.12890625 14.2109375  C 11.78515625 14.3806423611111  11.4296875 14.5208333333333  11.0625 14.6315104166667  C 10.9375 15.6349826388889  10.82421875 16.3211805555556  10.72265625 16.6901041666667  C 10.66796875 16.8967013888889  10.52734375 17  10.30078125 17  L 7.69921875 17  C 7.58984375 17  7.494140625 16.9686414930556  7.412109375 16.9059244791667  C 7.330078125 16.8432074652778  7.28515625 16.7638888888889  7.27734375 16.66796875  L 6.94921875 14.6315104166667  C 6.56640625 14.5134548611111  6.21484375 14.376953125  5.89453125 14.2220052083333  L 4.2421875 15.40625  C 4.1640625 15.47265625  4.06640625 15.505859375  3.94921875 15.505859375  C 3.83984375 15.505859375  3.7421875 15.4652777777778  3.65625 15.3841145833333  C 2.671875 14.54296875  2.02734375 13.9231770833333  1.72265625 13.5247395833333  C 1.66796875 13.4509548611111  1.640625 13.3661024305556  1.640625 13.2701822916667  C 1.640625 13.181640625  1.671875 13.0967881944444  1.734375 13.015625  C 1.8515625 12.8606770833333  2.05078125 12.6153428819444  2.33203125 12.2796223958333  C 2.61328125 11.9439019097222  2.82421875 11.6838107638889  2.96484375 11.4993489583333  C 2.75390625 11.1304253472222  2.59375 10.7651909722222  2.484375 10.4036458333333  L 0.33984375 10.1048177083333  C 0.23828125 10.0900607638889  0.15625 10.0439453125  0.09375 9.96647135416667  C 0.03125 9.88899739583333  0 9.80230034722222  0 9.70638020833333  L 0 7.24934895833333  C 0 7.16080729166667  0.03125 7.07595486111111  0.09375 6.99479166666667  C 0.15625 6.91362847222222  0.23046875 6.86566840277778  0.31640625 6.85091145833333  L 2.49609375 6.541015625  C 2.60546875 6.20160590277778  2.7578125 5.86219618055556  2.953125 5.52278645833333  C 2.640625 5.10221354166667  2.22265625 4.59309895833333  1.69921875 3.99544270833333  C 1.62109375 3.90690104166667  1.58203125 3.818359375  1.58203125 3.72981770833333  C 1.58203125 3.65603298611111  1.6171875 3.57118055555555  1.6875 3.47526041666667  C 1.890625 3.20963541666667  2.275390625 2.81304253472222  2.841796875 2.28548177083333  C 3.408203125 1.75792100694444  3.77734375 1.494140625  3.94921875 1.494140625  C 4.05078125 1.494140625  4.15234375 1.53103298611111  4.25390625 1.60481770833333  L 5.87109375 2.7890625  C 6.21484375 2.61935763888889  6.5703125 2.47916666666667  6.9375 2.36848958333333  C 7.0625 1.36501736111111  7.17578125 0.678819444444443  7.27734375 0.309895833333333  C 7.33203125 0.10329861111111  7.47265625 0  7.69921875 0  L 10.30078125 0  C 10.41015625 0  10.505859375 0.031358506944443  10.587890625 0.0940755208333327  C 10.669921875 0.156792534722221  10.71484375 0.23611111111111  10.72265625 0.33203125  L 11.05078125 2.36848958333333  C 11.43359375 2.48654513888889  11.78515625 2.623046875  12.10546875 2.77799479166667  L 13.76953125 1.59375  C 13.83984375 1.52734375  13.93359375 1.494140625  14.05078125 1.494140625  C 14.15234375 1.494140625  14.25 1.53103298611111  14.34375 1.60481770833333  C 15.3515625 2.48285590277778  15.99609375 3.11002604166667  16.27734375 3.486328125  C 16.33203125 3.54535590277778  16.359375 3.62651909722222  16.359375 3.72981770833333  C 16.359375 3.818359375  16.328125 3.90321180555555  16.265625 3.984375  C 16.1484375 4.13932291666667  15.94921875 4.38465711805555  15.66796875 4.72037760416667  C 15.38671875 5.05609809027778  15.17578125 5.31618923611111  15.03515625 5.50065104166667  C 15.23828125 5.86957465277778  15.3984375 6.23111979166667  15.515625 6.58528645833333  L 17.66015625 6.89518229166667  C 17.76171875 6.90993923611111  17.84375 6.9560546875  17.90625 7.03352864583333  Z " fill-rule="nonzero" fill="#9bc2a1" stroke="none" transform="matrix(1 0 0 1 299 533 )" />
  </g>
</svg>